<?xml version="1.0" encoding="UTF-8"?>
<svg xmlns="http://www.w3.org/2000/svg" width="964" height="274.5" version="1.1" viewBox="0 0 964 274.5">
  <defs>
    <style>
      .cls-1 {
        fill: #ffffff;
      }
    </style>
  </defs>
  <!-- Generator: Adobe Illustrator 28.7.1, SVG Export Plug-In . SVG Version: 1.2.0 Build 142)  -->
  <g>
    <g id="ka1">
      <g>
        <path class="cls-1" d="M932.9,11.4c-64.8,56.5-47.4,216.4-159.4,141-83.3-56.1-128.3-64.4-166.8-57.2-48.2,9-103.9,75.6,53.8,176.7,0,0-147.5-130-25.1-145.3,108.9-13.6,200.9,153.1,260.1,13.2,38.6-91.1,60.9-126,56.5-78.4-9.1,97.3-33.7,218.7-31,208.6,14.7-53.9,81.3-319.2,11.8-258.8Z"/>
        <path class="cls-1" d="M329.7,110.7c-.4,0-.8,0-1.2.1,0,0,0,0-.1,0-4.7.5-9.2,1-13.1,1.5-4.4.6-10.1,1.5-16.8,2.6,0,0,0-.1,0-.2,0,0,0,0,0,0-.1-8.9-.2-15.4-.2-15.6-.6-12.3-2.1-30-6.1-45.9-2-7.9-7.8-31.2-18.7-43.4C236.8-31.4,44.4,68.1,11.7,113.4c-26.3,36.3-17,78.8,121.5,55,22.9-3.9,49.7-9,78.3-14,0,0,0,0,0,0,3.6-.6,7.3-1.3,11-1.9,0,0,.2,0,.3,0,11.1-1.9,22.5-3.8,33.9-5.6h0s14.2-2.3,30.6-4.7c.1,5.2.2,10.7.3,16.5,0,0,0,0,0,.1.5,34.6,0,73.9-.6,115.8,0,0,9.8-61.2,11.6-126,0-2.5,0-5.2.1-8,11.6-1.6,22.8-2.9,29.7-3.3,82.2-8.5,153.9-5.1,163,35.6,9.5,42.8-48.8,99.3-48.8,99.3,0,0,59.7-40.3,64-92.2,6.5-78.9-112.7-75.7-176.6-69.1ZM286,117.2c-7.2,1.3-15.1,2.8-23.6,4.4-7.3,1.4-15.1,2.9-23,4.4h0c-.8.1-1.6.3-2.3.5-.9.2-1.7.3-2.6.5-.6.1-1.2.2-1.8.3-3.5.7-6.9,1.3-10.5,2-.3,0-.6.1-1,.2-1.9.4-3.9.8-5.9,1.1-.4,0-.8.1-1.1.2-2.2.4-4.5.9-6.7,1.3-46,8.9-94.3,17.8-121.7,20.6-44.8,4.5-83.9-7.9-45.4-44.7C75.1,74.9,211.8,12.5,251.1,19.9c15.5,2.9,24.6,21.1,29.9,50.3,1.3,7,2.3,14.6,3.1,22.8h0s1.1,8.8,2,24c0,0,0,0,0,0,0,0,0,.2,0,.2Z"/>
      </g>
    </g>
  </g>
</svg>